<?xml version="1.0" encoding="utf-8"?>
<!-- Generator: Adobe Illustrator 24.2.1, SVG Export Plug-In . SVG Version: 6.00 Build 0)  -->
<svg version="1.1" id="Layer_1" xmlns="http://www.w3.org/2000/svg" xmlns:xlink="http://www.w3.org/1999/xlink" x="0px" y="0px"
	 viewBox="0 0 896 858" style="enable-background:new 0 0 896 858;" xml:space="preserve">
<style type="text/css">
	.st0{fill:#FFFFFF;}
</style>
<path class="st0" d="M871.71,322.16c-2.5-2.03-4.92-3.86-7.2-5.86c-8.11-7.12-17.21-12.76-26.6-17.95
	c-10.04-5.54-20.35-10.52-31.28-14.14c-6.69-2.22-13.19-4.99-19.92-7.07c-6.1-1.88-12.38-3.18-18.59-4.71
	c-4.51-1.11-9.02-2.22-13.55-3.25c-3.72-0.85-7.45-1.65-11.2-2.33c-4.42-0.81-8.85-1.58-13.29-2.19c-6.32-0.87-12.67-1.58-19-2.37
	c-8.82-1.09-17.62-2.33-26.46-3.24c-5.79-0.6-11.63-0.75-17.45-1.06c-19.11-1.01-38.21-2.58-57.33-2.88
	c-36.15-0.57-72.33-1.12-108.46-0.34c-42.14,0.91-84.26,2.19-126.41,1.68c-20.31-0.24-40.62-0.98-60.9-2.01
	c-16.2-0.82-32.36-2.37-48.53-3.72c-7.79-0.65-15.59-1.33-23.31-2.49c-10.16-1.54-20.26-3.5-30.36-5.4
	c-7.5-1.41-15.01-2.87-22.45-4.58c-6.63-1.52-13.18-3.36-19.74-5.18c-5.2-1.44-10.4-2.9-15.5-4.65c-6.58-2.26-13.09-4.73-19.57-7.27
	c-5.79-2.27-11.64-4.48-17.22-7.22c-7.74-3.81-15.36-7.91-22.84-12.21c-15.95-9.17-29.8-20.94-41.93-34.72
	c-8.56-9.73-15.78-20.43-21.03-32.29c-3.46-7.81-6.85-15.75-9.1-23.95c-2.39-8.68-3.74-17.69-4.91-26.64
	c-1.08-8.3-2.08-16.74-1.76-25.06c0.43-11.08,2.19-22.11,3.38-33.16c0.16-1.49,0.23-2.99,0.45-4.47c0.1-0.7,0.46-1.37,0.71-2.05
	c0.74,0.27,1.59,0.39,2.2,0.84c4.61,3.42,9.01,7.14,13.78,10.32c12.2,8.13,24.83,15.51,38.4,21.16c9.26,3.86,18.47,7.88,27.88,11.37
	c7.07,2.62,14.41,4.52,21.65,6.68c6.11,1.82,12.21,3.73,18.39,5.28c6.84,1.72,13.75,3.15,20.65,4.6c8.78,1.84,17.55,3.73,26.38,5.27
	c7.36,1.29,14.82,2.05,22.22,3.14c5.91,0.87,11.8,1.86,17.7,2.8c0.99,0.16,1.97,0.38,2.96,0.46c10.77,0.91,21.55,1.85,32.33,2.68
	c14.84,1.14,29.69,2.22,44.54,3.23c3.82,0.26,7.66,0.23,11.49,0.26c22.99,0.17,45.99,0.64,68.97,0.36
	c17.22-0.21,34.43-1.45,51.65-2.16c7.65-0.31,15.35-0.09,22.97-0.72c23.03-1.9,46.09-1.4,69.15-1.46
	c13.66-0.03,27.33,0.03,40.97,0.63c11.54,0.51,23.04,1.78,34.55,2.83c9.86,0.9,19.75,1.69,29.56,3.03
	c10.12,1.38,20.18,3.26,30.23,5.08c7.92,1.43,15.85,2.87,23.67,4.75c7.82,1.88,15.52,4.24,23.23,6.55c5.1,1.52,10.15,3.2,15.15,5.02
	c7.96,2.89,15.95,5.72,23.76,8.99c8.2,3.44,16.28,7.2,24.26,11.11c12.35,6.06,23.96,13.33,34.94,21.65
	c9.35,7.08,17.89,15.06,25.21,24.11c6.14,7.6,11.44,15.94,16.61,24.26c5.51,8.87,9.12,18.7,11.91,28.71
	c2.17,7.8,3.03,15.95,4.92,23.84c2.75,11.45,1.77,23.05,1.68,34.58c-0.06,7.45-1.27,14.88-1.98,22.32
	C872.28,321.24,872.04,321.51,871.71,322.16z"/>
<path class="st0" d="M871.59,585.38c-1.34-1.08-2.74-2.1-4-3.26c-8.51-7.82-18.03-14.27-28.21-19.56
	c-10.82-5.61-21.94-10.69-33.19-15.39c-6.94-2.9-14.33-4.72-21.55-6.9c-6.27-1.89-12.58-3.66-18.9-5.37
	c-3.04-0.82-6.13-1.44-9.22-2.08c-6.57-1.37-13.12-2.84-19.73-3.99c-5.89-1.03-11.84-1.75-17.77-2.48
	c-10.15-1.25-20.31-2.45-30.47-3.59c-2.89-0.33-5.82-0.38-8.73-0.57c-11.53-0.74-23.07-1.44-34.6-2.24
	c-44.45-3.07-88.95-0.93-133.42-1.52c-14.07-0.19-28.14-0.61-42.2-1.05c-6.9-0.22-13.82-0.43-20.68-1.15
	c-7.59-0.79-15.12-2.14-22.67-3.25c-5.34-0.78-10.7-1.51-16.03-2.37c-4.49-0.72-9.02-1.35-13.43-2.45
	c-10.23-2.54-20.62-4.71-30.54-8.18c-12.59-4.4-25.09-9.31-37.06-15.15c-10.93-5.33-21.6-11.52-31.52-18.55
	c-14.36-10.18-27.4-22.06-37.28-36.86c-5.71-8.56-11.33-17.26-15.99-26.41c-4.85-9.51-8.61-19.6-10.96-30.11
	c-1.72-7.69-3.63-15.34-5.16-23.06c-0.66-3.32-0.6-6.79-0.79-10.2c-0.13-2.4,1.15-2.6,3.06-1.85c4.63,1.81,9.23,3.72,13.94,5.3
	c4.64,1.55,9.35,2.96,14.12,4.04c7.37,1.67,14.77,3.23,22.23,4.43c14.46,2.32,29.05,3.43,43.66,4.58
	c32.94,2.58,65.91,1.56,98.86,1.71c34.24,0.16,68.48-0.31,102.72-0.43c16.57-0.05,33.15-0.35,49.7,0.26
	c14.37,0.53,28.71,2.12,43.05,3.38c7.77,0.68,15.53,1.6,23.28,2.54c4.61,0.56,9.21,1.25,13.77,2.12c10.69,2.04,21.43,3.9,32,6.45
	c11.93,2.88,23.81,6.09,35.5,9.82c10.9,3.48,21.78,7.26,32.22,11.93c13.63,6.1,27.23,12.49,40.09,20.04
	c19.37,11.38,36.28,25.93,49.63,44.22c6.04,8.28,11.55,16.94,15.26,26.54c3.35,8.66,6.55,17.41,9.22,26.3
	c1.54,5.13,1.6,10.69,2.82,15.94c2.86,12.28,1.73,24.71,1.7,37.08c-0.01,7.01-1.18,14.01-1.83,21.01
	C872.17,585.17,871.88,585.27,871.59,585.38z"/>
<path class="st0" d="M871.86,838.53c-3.08-2.59-5.68-4.75-8.25-6.93c-9.68-8.23-20.23-15.18-31.51-20.96
	c-7.83-4.01-15.77-7.84-23.87-11.26c-6.48-2.73-13.24-4.83-19.95-6.98c-6.23-2-12.5-3.99-18.86-5.48
	c-7.67-1.8-15.44-3.11-23.19-4.54c-6.6-1.22-13.18-2.73-19.85-3.35c-13.84-1.29-27.74-1.86-41.58-3.13
	c-9.77-0.89-19.53-2.15-29.19-3.81c-7.58-1.3-15.03-3.4-22.51-5.3c-5.46-1.38-10.98-2.66-16.25-4.61
	c-8.49-3.13-16.94-6.44-25.13-10.25c-12.95-6.02-24.76-13.91-35.74-23.06c-11.93-9.94-22.22-21.35-29.87-34.87
	c-4.48-7.93-8.49-16.18-11.97-24.6c-2.32-5.62-3.37-11.77-4.92-17.7c-2.95-11.25-4.12-22.7-3.73-34.32c0.02-0.58,0-1.17,0.07-1.75
	c0.22-1.82,1.1-2.01,2.79-1.48c5.84,1.84,11.64,4.12,17.65,5.05c11.08,1.73,22.25,3.07,33.44,3.75c13.37,0.82,26.8,0.65,40.2,1.13
	c14.97,0.54,29.93,1.22,44.89,2.04c6.97,0.38,13.94,1.06,20.87,1.91c6.17,0.76,12.29,1.94,18.43,2.92
	c5.16,0.83,10.35,1.53,15.49,2.5c5.12,0.97,10.19,2.2,15.28,3.34c3.24,0.72,6.52,1.31,9.7,2.26c10.96,3.29,22.09,6.17,32.75,10.24
	c13.09,4.99,26.17,10.3,38.55,16.8c16.57,8.7,31.36,20.02,43.77,34.28c10.33,11.87,18.61,24.96,24.28,39.57
	c2.87,7.39,4.82,15.17,6.85,22.86c5.61,21.26,4.25,42.92,3.31,64.52C873.68,830.86,872.63,834.32,871.86,838.53z"/>
</svg>
